<svg width="30" height="30" viewBox="0 0 30 30" fill="none" xmlns="http://www.w3.org/2000/svg">
<circle cx="15" cy="15" r="14" stroke="white" stroke-width="2"/>
<path d="M19.9519 17.797C21.4328 18.6524 22.5049 19.6554 23.287 20.7619C23.3645 22.3726 22.0368 23.3425 20.8547 23.882C18.1623 23.9501 14.5401 21.7992 11.7081 18.1871C8.8761 14.575 7.65162 10.5443 8.36014 7.94584C9.16619 6.92663 10.4248 5.86869 11.9705 6.32833C12.8585 7.3519 13.5767 8.63238 14.054 10.2747C14.1335 10.5481 14.0483 10.8333 13.8424 11.0082C13.5047 11.2952 12.8978 11.773 11.9744 12.3677C11.7419 12.5175 11.6612 12.8217 11.7767 13.0907C12.2789 14.2591 12.9646 15.4204 13.8297 16.5237C14.6944 17.6266 15.6595 18.5712 16.6728 19.3392C16.9066 19.5164 17.2221 19.5105 17.4233 19.3198C18.2209 18.5634 18.8295 18.0874 19.1887 17.8277C19.4078 17.6693 19.7052 17.6545 19.9519 17.797Z" fill="white"/>
</svg>
