<svg width="204" height="31" viewBox="0 0 204 31" fill="none" xmlns="http://www.w3.org/2000/svg">
<path d="M0.76 30.5V2.5H12.28C14.76 2.5 16.88 2.9 18.64 3.7C20.4267 4.5 21.8 5.64666 22.76 7.14C23.72 8.63333 24.2 10.4067 24.2 12.46C24.2 14.5133 23.72 16.2867 22.76 17.78C21.8 19.2733 20.4267 20.42 18.64 21.22C16.88 22.02 14.76 22.42 12.28 22.42H3.64L5.96 19.98V30.5H0.76ZM5.96 20.54L3.64 18.02H12.04C14.3333 18.02 16.0533 17.54 17.2 16.58C18.3733 15.5933 18.96 14.22 18.96 12.46C18.96 10.6733 18.3733 9.3 17.2 8.34C16.0533 7.38 14.3333 6.9 12.04 6.9H3.64L5.96 4.34V20.54ZM38.8747 30.78C36.5014 30.78 34.4214 30.3133 32.6347 29.38C30.8747 28.42 29.5014 27.1133 28.5147 25.46C27.5547 23.8067 27.0747 21.9267 27.0747 19.82C27.0747 17.6867 27.5414 15.8067 28.4747 14.18C29.4347 12.5267 30.7414 11.2333 32.3947 10.3C34.0747 9.36667 35.9814 8.9 38.1147 8.9C40.1947 8.9 42.048 9.35333 43.6747 10.26C45.3014 11.1667 46.5814 12.4467 47.5147 14.1C48.448 15.7533 48.9147 17.7 48.9147 19.94C48.9147 20.1533 48.9014 20.3933 48.8747 20.66C48.8747 20.9267 48.8614 21.18 48.8347 21.42H31.0347V18.1H46.1947L44.2347 19.14C44.2614 17.9133 44.008 16.8333 43.4747 15.9C42.9414 14.9667 42.208 14.2333 41.2747 13.7C40.368 13.1667 39.3147 12.9 38.1147 12.9C36.888 12.9 35.808 13.1667 34.8747 13.7C33.968 14.2333 33.248 14.98 32.7147 15.94C32.208 16.8733 31.9547 17.98 31.9547 19.26V20.06C31.9547 21.34 32.248 22.4733 32.8347 23.46C33.4214 24.4467 34.248 25.2067 35.3147 25.74C36.3814 26.2733 37.608 26.54 38.9947 26.54C40.1947 26.54 41.2747 26.3533 42.2347 25.98C43.1947 25.6067 44.048 25.02 44.7947 24.22L47.4747 27.3C46.5147 28.42 45.3014 29.2867 43.8347 29.9C42.3947 30.4867 40.7414 30.78 38.8747 30.78ZM66.2916 30.5V26.18L66.0116 25.26V17.7C66.0116 16.2333 65.5716 15.1 64.6916 14.3C63.8116 13.4733 62.4782 13.06 60.6916 13.06C59.4916 13.06 58.3049 13.2467 57.1316 13.62C55.9849 13.9933 55.0116 14.5133 54.2116 15.18L52.2516 11.54C53.3982 10.66 54.7582 10.0067 56.3316 9.58C57.9316 9.12667 59.5849 8.9 61.2916 8.9C64.3849 8.9 66.7716 9.64667 68.4516 11.14C70.1582 12.6067 71.0116 14.8867 71.0116 17.98V30.5H66.2916ZM59.5716 30.78C57.9716 30.78 56.5716 30.5133 55.3716 29.98C54.1716 29.42 53.2382 28.66 52.5716 27.7C51.9316 26.7133 51.6116 25.6067 51.6116 24.38C51.6116 23.18 51.8916 22.1 52.4516 21.14C53.0382 20.18 53.9849 19.42 55.2916 18.86C56.5982 18.3 58.3316 18.02 60.4916 18.02H66.6916V21.34H60.8516C59.1449 21.34 57.9982 21.62 57.4116 22.18C56.8249 22.7133 56.5316 23.38 56.5316 24.18C56.5316 25.0867 56.8916 25.8067 57.6116 26.34C58.3316 26.8733 59.3316 27.14 60.6116 27.14C61.8382 27.14 62.9316 26.86 63.8916 26.3C64.8782 25.74 65.5849 24.9133 66.0116 23.82L66.8516 26.82C66.3716 28.0733 65.5049 29.0467 64.2516 29.74C63.0249 30.4333 61.4649 30.78 59.5716 30.78ZM77.4284 30.5V9.14H82.1884V15.02L81.6284 13.3C82.2684 11.86 83.2684 10.7667 84.6284 10.02C86.0151 9.27333 87.7351 8.9 89.7884 8.9V13.66C89.5751 13.6067 89.3751 13.58 89.1884 13.58C89.0018 13.5533 88.8151 13.54 88.6284 13.54C86.7351 13.54 85.2284 14.1 84.1084 15.22C82.9884 16.3133 82.4284 17.9533 82.4284 20.14V30.5H77.4284ZM99.5313 30.5L91.6913 9.14H96.4113L103.131 27.98H100.891L107.931 9.14H112.131L118.971 27.98H116.771L123.691 9.14H128.131L120.251 30.5H115.451L109.211 13.82H110.691L104.331 30.5H99.5313ZM140.583 30.78C138.396 30.78 136.45 30.3133 134.743 29.38C133.036 28.42 131.69 27.1133 130.703 25.46C129.716 23.8067 129.223 21.9267 129.223 19.82C129.223 17.6867 129.716 15.8067 130.703 14.18C131.69 12.5267 133.036 11.2333 134.743 10.3C136.45 9.36667 138.396 8.9 140.583 8.9C142.796 8.9 144.756 9.36667 146.463 10.3C148.196 11.2333 149.543 12.5133 150.503 14.14C151.49 15.7667 151.983 17.66 151.983 19.82C151.983 21.9267 151.49 23.8067 150.503 25.46C149.543 27.1133 148.196 28.42 146.463 29.38C144.756 30.3133 142.796 30.78 140.583 30.78ZM140.583 26.5C141.81 26.5 142.903 26.2333 143.863 25.7C144.823 25.1667 145.57 24.3933 146.103 23.38C146.663 22.3667 146.943 21.18 146.943 19.82C146.943 18.4333 146.663 17.2467 146.103 16.26C145.57 15.2467 144.823 14.4733 143.863 13.94C142.903 13.4067 141.823 13.14 140.623 13.14C139.396 13.14 138.303 13.4067 137.343 13.94C136.41 14.4733 135.663 15.2467 135.103 16.26C134.543 17.2467 134.263 18.4333 134.263 19.82C134.263 21.18 134.543 22.3667 135.103 23.38C135.663 24.3933 136.41 25.1667 137.343 25.7C138.303 26.2333 139.383 26.5 140.583 26.5ZM166.364 30.78C164.178 30.78 162.231 30.3133 160.524 29.38C158.818 28.42 157.471 27.1133 156.484 25.46C155.498 23.8067 155.004 21.9267 155.004 19.82C155.004 17.6867 155.498 15.8067 156.484 14.18C157.471 12.5267 158.818 11.2333 160.524 10.3C162.231 9.36667 164.178 8.9 166.364 8.9C168.578 8.9 170.538 9.36667 172.244 10.3C173.978 11.2333 175.324 12.5133 176.284 14.14C177.271 15.7667 177.764 17.66 177.764 19.82C177.764 21.9267 177.271 23.8067 176.284 25.46C175.324 27.1133 173.978 28.42 172.244 29.38C170.538 30.3133 168.578 30.78 166.364 30.78ZM166.364 26.5C167.591 26.5 168.684 26.2333 169.644 25.7C170.604 25.1667 171.351 24.3933 171.884 23.38C172.444 22.3667 172.724 21.18 172.724 19.82C172.724 18.4333 172.444 17.2467 171.884 16.26C171.351 15.2467 170.604 14.4733 169.644 13.94C168.684 13.4067 167.604 13.14 166.404 13.14C165.178 13.14 164.084 13.4067 163.124 13.94C162.191 14.4733 161.444 15.2467 160.884 16.26C160.324 17.2467 160.044 18.4333 160.044 19.82C160.044 21.18 160.324 22.3667 160.884 23.38C161.444 24.3933 162.191 25.1667 163.124 25.7C164.084 26.2333 165.164 26.5 166.364 26.5ZM191.586 30.78C189.532 30.78 187.679 30.3267 186.026 29.42C184.399 28.4867 183.119 27.2067 182.186 25.58C181.252 23.9533 180.786 22.0333 180.786 19.82C180.786 17.6067 181.252 15.6867 182.186 14.06C183.119 12.4333 184.399 11.1667 186.026 10.26C187.679 9.35333 189.532 8.9 191.586 8.9C193.372 8.9 194.972 9.3 196.386 10.1C197.799 10.8733 198.919 12.06 199.746 13.66C200.572 15.26 200.986 17.3133 200.986 19.82C200.986 22.3 200.586 24.3533 199.786 25.98C198.986 27.58 197.879 28.78 196.466 29.58C195.052 30.38 193.426 30.78 191.586 30.78ZM192.186 26.5C193.386 26.5 194.452 26.2333 195.386 25.7C196.346 25.1667 197.106 24.3933 197.666 23.38C198.252 22.3667 198.546 21.18 198.546 19.82C198.546 18.4333 198.252 17.2467 197.666 16.26C197.106 15.2467 196.346 14.4733 195.386 13.94C194.452 13.4067 193.386 13.14 192.186 13.14C190.986 13.14 189.906 13.4067 188.946 13.94C188.012 14.4733 187.252 15.2467 186.666 16.26C186.106 17.2467 185.826 18.4333 185.826 19.82C185.826 21.18 186.106 22.3667 186.666 23.38C187.252 24.3933 188.012 25.1667 188.946 25.7C189.906 26.2333 190.986 26.5 192.186 26.5ZM198.666 30.5V25.46L198.866 19.78L198.466 14.1V0.819998H203.426V30.5H198.666Z" fill="white"/>
</svg>
