<svg width="34" height="28" viewBox="0 0 34 28" fill="none" xmlns="http://www.w3.org/2000/svg">
<path d="M15.2999 9.39978C15.0839 8.05578 14.6999 6.93977 14.1479 6.05177C13.5959 5.13977 12.8879 4.45577 12.0239 3.99977C11.1839 3.54377 10.1999 3.32778 9.07191 3.35178C8.03991 3.35178 7.12791 3.63977 6.33591 4.21577C5.56791 4.79177 5.1839 5.53578 5.1839 6.44778C5.1839 7.19178 5.38791 7.83978 5.79591 8.39178C6.22791 8.94378 6.87591 9.45978 7.73991 9.93978C8.60391 10.4198 9.6959 10.9358 11.0159 11.4878C11.9279 11.8478 12.8639 12.2678 13.8239 12.7478C14.7839 13.2278 15.6719 13.8038 16.4879 14.4758C17.3039 15.1238 17.9639 15.8918 18.4679 16.7798C18.9719 17.6438 19.2239 18.6638 19.2239 19.8398C19.2239 21.2558 18.8399 22.5158 18.0719 23.6198C17.3039 24.7238 16.2239 25.5878 14.8319 26.2118C13.4639 26.8118 11.8559 27.1118 10.0079 27.1118C9.0479 27.1118 8.00391 26.9558 6.87591 26.6438C5.77191 26.3558 4.72791 25.9238 3.74391 25.3478L3.8519 26.8598H1.07991V18.4358H3.45591C3.79191 20.4518 4.5599 21.9758 5.7599 23.0078C6.9839 24.0158 8.43591 24.5198 10.1159 24.5198C10.9799 24.5198 11.7359 24.3638 12.3839 24.0518C13.0319 23.7398 13.5359 23.3318 13.8959 22.8278C14.2559 22.2998 14.4359 21.7358 14.4359 21.1358C14.4359 20.2958 14.1359 19.5998 13.5359 19.0478C12.9599 18.4958 12.2279 18.0278 11.3399 17.6438C10.4759 17.2598 9.5879 16.8878 8.6759 16.5278C7.5239 16.0478 6.4439 15.5438 5.4359 15.0158C4.4519 14.4638 3.5879 13.8398 2.8439 13.1438C2.0999 12.4478 1.52391 11.6558 1.11591 10.7678C0.707913 9.85578 0.503906 8.81176 0.503906 7.63577C0.503906 6.89177 0.647898 6.12377 0.935898 5.33177C1.2239 4.51577 1.6919 3.77178 2.3399 3.09978C2.9879 2.40378 3.8519 1.83978 4.9319 1.40778C6.0119 0.975776 7.3439 0.759766 8.9279 0.759766C9.8879 0.759766 10.9319 0.90378 12.0599 1.19178C13.2119 1.47978 14.1959 1.91178 15.0119 2.48778L14.8679 1.01176H17.6759V9.39978H15.2999ZM23.3519 26.5358V24.1598C23.9039 24.1358 24.3599 24.0638 24.7199 23.9438C25.1039 23.8238 25.3919 23.5478 25.5839 23.1158C25.7999 22.6838 25.9079 21.9878 25.9079 21.0278V6.59177L21.9839 8.93179L20.6879 6.77178L28.9319 0.759766H31.0919V20.6318C31.0919 21.2798 31.0799 21.9038 31.0559 22.5038C31.0559 23.1038 31.0319 23.5598 30.9839 23.8718C31.3679 23.8238 31.8479 23.7998 32.4239 23.7998C33.0239 23.7758 33.4439 23.7638 33.6839 23.7638V26.5358H23.3519Z" fill="#0EB27F"/>
</svg>
